HIERARCHY
ROOT Hips
{
	OFFSET -0.179506 -22.333345 2.821913
	CHANNELS 6 Xposition Yposition Zposition Zrotation Yrotation Xrotation 
	JOINT LeftUpLeg
	{
		OFFSET 6.951974 -9.140623 -0.681533
		CHANNELS 3 Zrotation Yrotation Xrotation
		JOINT LeftLeg
		{
			OFFSET 3.427654 -37.519855 -0.449580
			CHANNELS 3 Zrotation Yrotation Xrotation
			JOINT LeftFoot
			{
				OFFSET -1.359570 -39.796059 -4.369333
				CHANNELS 3 Zrotation Yrotation Xrotation
				JOINT LeftToe
				{
					OFFSET 2.635814 -5.579078 11.928840
					CHANNELS 3 Zrotation Yrotation Xrotation
					End Site
					{
						OFFSET 0.000000 0.000000 0.000000
					}
				}
			}
		}
	}
	JOINT RightUpLeg
	{
		OFFSET -6.767048 -9.052170 -0.431982
		CHANNELS 3 Zrotation Yrotation Xrotation
		JOINT RightLeg
		{
			OFFSET -3.829005 -38.256897 -0.885003
			CHANNELS 3 Zrotation Yrotation Xrotation
			JOINT RightFoot
			{
				OFFSET 1.577377 -39.841461 -4.231180
				CHANNELS 3 Zrotation Yrotation Xrotation
				JOINT RightToe
				{
					OFFSET -2.537174 -4.814398 12.334795
					CHANNELS 3 Zrotation Yrotation Xrotation
					End Site
					{
						OFFSET 0.000000 0.000000 0.000000
					}
				}
			}
		}
	}
	JOINT Spine
	{
		OFFSET -0.253288 10.896323 -2.669631
		CHANNELS 3 Zrotation Yrotation Xrotation
		JOINT Spine1
		{
			OFFSET 0.548704 13.518043 0.109247
			CHANNELS 3 Zrotation Yrotation Xrotation
			JOINT Spine2
			{
				OFFSET 0.145701 5.292222 2.542457
				CHANNELS 3 Zrotation Yrotation Xrotation
				JOINT Neck
				{
					OFFSET -0.277840 21.387037 -4.285703
					CHANNELS 3 Zrotation Yrotation Xrotation
					JOINT Head
					{
						OFFSET 0.515184 6.496960 5.134897
						CHANNELS 3 Zrotation Yrotation Xrotation
						End Site
						{
							OFFSET 0.000000 0.000000 0.000000
						}
					}
				}
				JOINT LeftShoulder
				{
					OFFSET 7.884473 12.174932 -3.408961
					CHANNELS 3 Zrotation Yrotation Xrotation
					JOINT LeftArm
					{
						OFFSET 9.097692 3.046888 -0.886815
						CHANNELS 3 Zrotation Yrotation Xrotation
						JOINT LeftForeArm
						{
							OFFSET 25.961220 -1.277207 -2.745643
							CHANNELS 3 Zrotation Yrotation Xrotation
							JOINT LeftHand
							{
								OFFSET 24.923361 0.898606 -0.117091
								CHANNELS 3 Zrotation Yrotation Xrotation
								End Site
								{
									OFFSET 0.000000 0.000000 0.000000
								}
							}
						}
					}
				}
				JOINT RightShoulder
				{
					OFFSET -8.175920 11.883285 -3.861528
					CHANNELS 3 Zrotation Yrotation Xrotation
					JOINT RightArm
					{
						OFFSET -9.601238 3.255117 -0.914307
						CHANNELS 3 Zrotation Yrotation Xrotation
						JOINT RightForeArm
						{
							OFFSET -25.374195 -1.332924 -2.140099
							CHANNELS 3 Zrotation Yrotation Xrotation
							JOINT RightHand
							{
								OFFSET -25.529810 0.777228 -0.555919
								CHANNELS 3 Zrotation Yrotation Xrotation
								End Site
								{
									OFFSET 0.000000 0.000000 0.000000
								}
							}
						}
					}
				}
			}
		}
	}
}
MOTION
Frames: 7
Frame Time: 0.033333
-42.037861 24.328180 86.855438 88.019523 8.050098 85.789313 7.263547 -11.344051 -24.897563 -5.308394 -11.048689 59.336201 -1.112774 5.471595 -36.641394 nan nan nan -18.812418 -4.867431 -7.709429 1.503283 6.701866 21.991565 15.112531 9.255406 -13.885491 nan nan nan -0.929053 12.381540 12.182750 1.952084 4.612888 0.128288 1.683718 8.996610 -4.826277 2.623264 28.093959 8.120354 -7.794684 16.218330 21.189875 -7.819670 -13.563574 -3.063450 -17.825948 -3.403551 -7.731720 56.187371 -37.310890 -53.162997 22.164559 -32.407453 -25.822107 19.187310 31.740121 3.972786 44.496933 45.295968 24.706440 -120.417777 83.246742 -107.511020 -4.752447 27.956273 -35.243147 
-42.488155 24.105970 86.641815 86.689991 8.489789 86.545000 8.013902 -11.196070 -26.178739 -4.920700 -10.687099 59.795299 -1.531664 5.913390 -36.730851 nan nan nan -18.370764 -4.627745 -8.448818 1.622896 5.611772 20.596373 14.751199 9.304751 -14.062200 nan nan nan -1.034412 12.102011 12.572136 2.005596 4.280017 -0.550242 1.728519 8.598608 -4.682538 2.029395 29.665815 7.257470 -7.966444 16.694832 20.951694 -7.312398 -13.124616 0.324213 -19.553358 -2.799394 -8.834916 59.083595 -34.310325 -57.523903 22.288277 -32.308989 -25.970690 18.705552 31.437094 4.626976 45.414223 45.304199 24.892311 -124.243986 82.662695 -111.501995 -3.889454 28.409667 -34.699957 
-42.983608 23.895016 86.492058 85.595669 8.782568 87.209713 8.779750 -11.359715 -27.358678 -5.673975 -10.462960 60.420968 -1.278943 7.770840 -36.417429 nan nan nan -18.106923 -4.685575 -9.004197 1.970924 4.884559 19.409317 14.074298 8.718908 -14.343226 nan nan nan -1.005775 11.923046 13.108288 1.643738 3.951907 -1.561099 1.646602 8.524027 -3.759190 1.249280 30.553812 5.843850 -7.989618 17.197388 20.435745 -7.077803 -12.867432 -1.522194 -19.665414 -2.230846 -9.653212 59.017104 -34.963992 -56.036303 25.123465 -30.179060 -28.534590 17.778965 30.853444 3.745583 46.747998 44.270580 24.953822 -133.614537 82.377331 -118.717358 -5.580758 28.120712 -36.870873 
-43.374878 23.716900 86.415619 84.851484 9.257617 87.586867 9.808645 -11.681134 -28.163937 -5.640521 -9.741956 60.648592 -1.579164 8.197782 -36.085792 nan nan nan -17.578617 -4.694032 -8.840409 2.084876 3.932230 17.682775 13.928043 8.355737 -14.067328 nan nan nan -1.547159 12.600925 13.166918 2.352874 3.569074 -1.993318 2.391963 8.391916 -2.905634 0.240687 31.360337 4.983249 -8.219125 16.794718 20.185475 -5.747977 -12.283975 -1.282691 -23.443210 -5.615308 -11.840526 59.256672 -32.958394 -55.255238 26.078193 -30.163548 -29.106395 15.759716 29.539494 2.459597 48.197887 42.911220 24.774796 -141.264270 82.073654 -124.453113 -6.071960 28.125316 -38.757068 
-43.820858 23.526129 86.403908 84.284103 9.408315 88.007570 10.948469 -12.034348 -29.072172 -5.503548 -8.304173 60.627794 -2.034483 7.854643 -35.738273 nan nan nan -17.354138 -4.754377 -8.779206 2.229596 3.163454 16.040690 13.175065 8.140733 -14.089518 nan nan nan -1.045479 11.977037 13.967082 1.566732 3.613907 -1.968917 1.817534 7.684803 -3.425359 -0.112726 31.544194 4.110383 -7.889326 17.980244 20.259040 -6.476357 -11.982666 -2.219753 -22.300100 -5.797746 -11.671837 59.537592 -31.077239 -56.277006 23.488822 -30.867033 -28.548548 16.583084 29.184836 3.446532 48.043524 42.590198 25.093793 -139.990156 81.251342 -123.401540 -4.652972 28.647325 -38.810331 
-44.287884 23.311384 86.451126 84.130409 9.584658 88.758175 11.957456 -11.661568 -30.224120 -5.394243 -7.557609 60.403095 -2.287661 7.197060 -35.286432 nan nan nan -16.973690 -5.150734 -8.832879 2.173469 2.566183 14.216263 12.970222 8.223316 -13.530705 nan nan nan -1.111601 11.533039 14.215825 1.323395 3.021055 -2.063552 1.707078 7.349535 -3.307679 -1.089054 32.250342 3.023477 -7.698579 18.536023 19.863566 -6.421336 -11.580923 -2.558808 -22.609887 -6.186873 -12.710097 59.728731 -30.262885 -56.719238 23.490846 -30.682456 -28.127333 16.688254 28.414628 3.468119 48.377342 42.025482 25.040639 -143.658534 81.145136 -126.839592 -4.260197 28.947726 -39.114255 
-44.729866 23.088396 86.573120 84.499439 9.705475 89.636142 12.818992 -11.168269 -31.434267 -5.013596 -7.052619 59.865686 -2.308336 6.220711 -34.745678 nan nan nan -16.609665 -5.863134 -8.777005 2.086885 2.348256 12.289467 13.593179 8.356896 -12.605616 nan nan nan -1.516439 11.443218 14.161650 1.351402 2.590410 -1.907594 1.924050 6.519756 -3.372771 -1.961387 32.327640 2.131168 -7.546742 19.176862 19.669660 -6.655217 -11.393526 -3.360199 -23.043470 -7.036307 -13.316699 59.839468 -29.548720 -56.961951 23.156882 -30.669606 -27.479661 16.983608 27.424469 3.344586 48.270235 41.105215 24.994476 -146.148718 80.884634 -129.440523 -3.123439 29.483104 -38.912401 
